<svg viewBox="0 0 157.5 42.1435546875" xmlns="http://www.w3.org/2000/svg" data-logo="logo">
        <g transform="translate(0, 1.07177734375)
    rotate(0 20 20)" id="logogram" style="transition: 0.2s; opacity: 1;"><path fill="url(#paint0_linear_7697_8782)" d="M24 0H16V12.0632C15.9663 14.2434 14.1885 16 12.0005 16H0V24H8.68629C10.808 24 12.8429 23.1571 14.3431 21.6569L21.6569 14.3431C23.1571 12.8429 24 10.808 24 8.68629V0Z"></path><path fill="url(#paint1_linear_7697_8782)" d="M16 40H24V27.9368C24.0337 25.7566 25.8115 24 27.9995 24H40V16H31.3137C29.192 16 27.1571 16.8429 25.6569 18.3431L18.3431 25.6569C16.8429 27.1571 16 29.192 16 31.3137V40Z"></path></g>
        <g transform="translate(46, 0.5)" id="logotype" style="transition: 0.2s; opacity: 1;"><path d="M17.64 34.38L17.64 34.38Q14.58 34.38 12.31 33.44Q10.05 32.50 8.79 30.65Q7.52 28.80 7.45 26.10L7.45 26.10L12.53 26.10Q12.63 27.39 13.30 28.25Q13.96 29.11 15.07 29.54Q16.19 29.97 17.59 29.97L17.59 29.97Q18.99 29.97 20.02 29.57Q21.06 29.16 21.64 28.43Q22.22 27.69 22.22 26.72L22.22 26.72Q22.22 25.85 21.70 25.26Q21.18 24.67 20.20 24.24Q19.23 23.81 17.83 23.49L17.83 23.49L15.02 22.79Q11.79 22.00 9.96 20.32Q8.14 18.64 8.14 15.87L8.14 15.87Q8.14 13.56 9.38 11.83Q10.61 10.11 12.78 9.15Q14.94 8.19 17.71 8.19L17.71 8.19Q20.53 8.19 22.63 9.16Q24.73 10.13 25.91 11.84Q27.09 13.56 27.12 15.80L27.12 15.80L22.08 15.80Q21.94 14.26 20.77 13.42Q19.60 12.59 17.66 12.59L17.66 12.59Q16.34 12.59 15.40 12.96Q14.46 13.34 13.96 14.00Q13.47 14.67 13.47 15.53L13.47 15.53Q13.47 16.47 14.04 17.09Q14.61 17.71 15.54 18.10Q16.48 18.48 17.55 18.74L17.55 18.74L19.86 19.30Q21.47 19.66 22.85 20.28Q24.23 20.89 25.28 21.79Q26.32 22.69 26.89 23.92Q27.46 25.15 27.46 26.75L27.46 26.75Q27.46 29.06 26.30 30.78Q25.14 32.50 22.94 33.44Q20.73 34.38 17.64 34.38ZM37.37 34.38L37.37 34.38Q34.49 34.38 32.39 33.14Q30.30 31.90 29.16 29.68Q28.03 27.47 28.03 24.53L28.03 24.53Q28.03 21.56 29.16 19.35Q30.30 17.13 32.39 15.89Q34.49 14.65 37.37 14.65L37.37 14.65Q39.07 14.65 40.50 15.10Q41.94 15.54 43.05 16.36Q44.16 17.18 44.88 18.36Q45.60 19.54 45.87 21.01L45.87 21.01L41.10 21.90Q40.95 21.15 40.62 20.56Q40.30 19.97 39.84 19.55Q39.37 19.13 38.77 18.91Q38.16 18.69 37.43 18.69L37.43 18.69Q36.06 18.69 35.13 19.42Q34.20 20.16 33.73 21.47Q33.26 22.79 33.26 24.52L33.26 24.52Q33.26 26.22 33.73 27.53Q34.20 28.84 35.13 29.59Q36.06 30.34 37.43 30.34L37.43 30.34Q38.16 30.34 38.78 30.11Q39.39 29.88 39.87 29.45Q40.35 29.01 40.67 28.39Q41.00 27.78 41.13 27.01L41.13 27.01L45.90 27.88Q45.63 29.40 44.91 30.59Q44.19 31.78 43.08 32.63Q41.97 33.49 40.53 33.93Q39.08 34.38 37.37 34.38ZM52.28 34L47.15 34L47.15 14.89L52.10 14.89L52.10 18.23L52.31 18.23Q52.84 16.45 54.08 15.54Q55.32 14.64 56.92 14.64L56.92 14.64Q57.32 14.64 57.77 14.68Q58.22 14.72 58.58 14.81L58.58 14.81L58.58 19.39Q58.24 19.27 57.59 19.20Q56.94 19.13 56.36 19.13L56.36 19.13Q55.20 19.13 54.26 19.64Q53.32 20.14 52.80 21.04Q52.28 21.93 52.28 23.13L52.28 23.13L52.28 34ZM64.25 34L59.13 34L59.13 14.89L64.25 14.89L64.25 34ZM61.69 12.40L61.69 12.40Q60.53 12.40 59.71 11.63Q58.89 10.86 58.89 9.77L58.89 9.77Q58.89 8.67 59.71 7.90Q60.53 7.13 61.69 7.13L61.69 7.13Q62.85 7.13 63.68 7.90Q64.51 8.66 64.51 9.77L64.51 9.77Q64.51 10.86 63.68 11.63Q62.85 12.40 61.69 12.40ZM77.55 34L71.72 34L64.68 14.89L70.13 14.89L73.34 24.81Q73.92 26.67 74.36 28.57Q74.80 30.46 75.26 32.50L75.26 32.50L74.16 32.50Q74.61 30.46 75.03 28.57Q75.46 26.67 76.04 24.81L76.04 24.81L79.22 14.89L84.61 14.89L77.55 34ZM90.17 34L85.05 34L85.05 14.89L90.17 14.89L90.17 34ZM87.61 12.40L87.61 12.40Q86.45 12.40 85.63 11.63Q84.81 10.86 84.81 9.77L84.81 9.77Q84.81 8.67 85.63 7.90Q86.45 7.13 87.61 7.13L87.61 7.13Q88.77 7.13 89.60 7.90Q90.43 8.66 90.43 9.77L90.43 9.77Q90.43 10.86 89.60 11.63Q88.77 12.40 87.61 12.40ZM109.95 14.89L109.95 41.14L104.82 41.14L104.82 30.94L104.65 30.94Q104.31 31.71 103.63 32.49Q102.96 33.27 101.88 33.79Q100.80 34.32 99.25 34.32L99.25 34.32Q97.04 34.32 95.27 33.19Q93.50 32.05 92.48 29.86Q91.45 27.66 91.45 24.48L91.45 24.48Q91.45 21.22 92.51 19.03Q93.57 16.84 95.33 15.75Q97.09 14.65 99.21 14.65L99.21 14.65Q100.84 14.65 101.91 15.20Q102.99 15.75 103.66 16.55Q104.32 17.35 104.65 18.11L104.65 18.11L104.90 18.11L104.90 14.89L109.95 14.89ZM100.82 30.21L100.82 30.21Q102.12 30.21 103.04 29.49Q103.96 28.77 104.44 27.48Q104.92 26.19 104.92 24.46L104.92 24.46Q104.92 22.72 104.45 21.45Q103.98 20.17 103.06 19.47Q102.14 18.76 100.82 18.76L100.82 18.76Q99.47 18.76 98.55 19.49Q97.64 20.23 97.18 21.51Q96.72 22.79 96.72 24.46L96.72 24.46Q96.72 26.14 97.19 27.44Q97.66 28.74 98.57 29.47Q99.49 30.21 100.82 30.21Z" fill="#0879e7"></path></g>
        <defs xmlns="http://www.w3.org/2000/svg">
<linearGradient gradientUnits="userSpaceOnUse" y2="33.7931" x2="20" y1="-0.997096" x1="20" id="paint0_linear_7697_8782">
<stop stop-color="#75D8FC"></stop>
<stop stop-color="#0072E5" offset="1"></stop>
</linearGradient>
<linearGradient gradientUnits="userSpaceOnUse" y2="33.7931" x2="20" y1="-0.997096" x1="20" id="paint1_linear_7697_8782">
<stop stop-color="#75D8FC"></stop>
<stop stop-color="#0072E5" offset="1"></stop>
</linearGradient>
</defs>
      </svg>